<svg xmlns="http://www.w3.org/2000/svg" width="900" height="420" viewBox="0 0 900 420">
  <rect width="900" height="420" fill="#f8fafc"/>
  <text x="42" y="52" font-family="Arial, sans-serif" font-size="28" font-weight="700" fill="#0f172a">Conversational stance profile</text>
  <text x="42" y="82" font-family="Arial, sans-serif" font-size="15" fill="#475569">Example scores across five behavior dimensions. Replace this SVG with a real chart generated from results.</text>
  <line x1="140" y1="340" x2="840" y2="340" stroke="#94a3b8" stroke-width="2"/>
  <line x1="140" y1="120" x2="140" y2="340" stroke="#94a3b8" stroke-width="2"/>
  <g stroke="#e2e8f0" stroke-width="1">
    <line x1="140" y1="296" x2="840" y2="296"/>
    <line x1="140" y1="252" x2="840" y2="252"/>
    <line x1="140" y1="208" x2="840" y2="208"/>
    <line x1="140" y1="164" x2="840" y2="164"/>
    <line x1="140" y1="120" x2="840" y2="120"/>
  </g>
  <g font-family="Arial, sans-serif" font-size="13" fill="#64748b">
    <text x="112" y="344">0.0</text>
    <text x="112" y="300">0.2</text>
    <text x="112" y="256">0.4</text>
    <text x="112" y="212">0.6</text>
    <text x="112" y="168">0.8</text>
    <text x="112" y="124">1.0</text>
  </g>
  <g font-family="Arial, sans-serif" font-size="15" fill="#334155">
    <text x="178" y="374">Sycophancy</text>
    <text x="325" y="374">Correction</text>
    <text x="478" y="374">Caution</text>
    <text x="625" y="374">Warmth</text>
    <text x="759" y="374">Abstraction</text>
  </g>
  <polyline points="220,184 370,256 520,248 670,158 800,241" fill="none" stroke="#2563eb" stroke-width="5" stroke-linecap="round" stroke-linejoin="round"/>
  <polyline points="220,254 370,169 520,179 670,252 800,272" fill="none" stroke="#059669" stroke-width="5" stroke-linecap="round" stroke-linejoin="round"/>
  <polyline points="220,221 370,207 520,155 670,204 800,164" fill="none" stroke="#d97706" stroke-width="5" stroke-linecap="round" stroke-linejoin="round"/>
  <g>
    <circle cx="220" cy="184" r="6" fill="#2563eb"/><circle cx="370" cy="256" r="6" fill="#2563eb"/><circle cx="520" cy="248" r="6" fill="#2563eb"/><circle cx="670" cy="158" r="6" fill="#2563eb"/><circle cx="800" cy="241" r="6" fill="#2563eb"/>
    <circle cx="220" cy="254" r="6" fill="#059669"/><circle cx="370" cy="169" r="6" fill="#059669"/><circle cx="520" cy="179" r="6" fill="#059669"/><circle cx="670" cy="252" r="6" fill="#059669"/><circle cx="800" cy="272" r="6" fill="#059669"/>
    <circle cx="220" cy="221" r="6" fill="#d97706"/><circle cx="370" cy="207" r="6" fill="#d97706"/><circle cx="520" cy="155" r="6" fill="#d97706"/><circle cx="670" cy="204" r="6" fill="#d97706"/><circle cx="800" cy="164" r="6" fill="#d97706"/>
  </g>
  <g font-family="Arial, sans-serif" font-size="15" fill="#334155">
    <rect x="604" y="42" width="236" height="82" fill="#ffffff" stroke="#cbd5e1" rx="8"/>
    <line x1="626" y1="66" x2="666" y2="66" stroke="#2563eb" stroke-width="5" stroke-linecap="round"/>
    <text x="678" y="71">Model A</text>
    <line x1="626" y1="90" x2="666" y2="90" stroke="#059669" stroke-width="5" stroke-linecap="round"/>
    <text x="678" y="95">Model B</text>
    <line x1="626" y1="114" x2="666" y2="114" stroke="#d97706" stroke-width="5" stroke-linecap="round"/>
    <text x="678" y="119">Model C</text>
  </g>
</svg>
